<?xml version="1.0" encoding="UTF-8"?>
<svg xmlns="http://www.w3.org/2000/svg" width="674" height="668" viewBox="0 0 674 668" fill="none">
  <g clip-path="url(#clip0_1013_7)">
    <path d="M34 167.333C34 104.479 34 73.0523 53.5263 53.5263C73.0523 34 104.479 34 167.333 34C230.187 34 261.614 34 281.14 53.5263C300.667 73.0523 300.667 104.479 300.667 167.333V334V500.667C300.667 563.52 300.667 594.947 281.14 614.473C261.614 634 230.187 634 167.333 634C104.479 634 73.0523 634 53.5263 614.473C34 594.947 34 563.52 34 500.667V334V167.333Z" stroke="#FFF6EB" stroke-width="66.6667" stroke-linejoin="round"></path>
    <path d="M300.668 184L356.388 128.281C400.831 83.8364 423.054 61.6143 450.668 61.6143C478.281 61.6143 500.504 83.8364 544.948 128.281L573.054 156.386C617.498 200.83 639.721 223.052 639.721 250.667C639.721 278.28 617.498 300.503 573.054 344.947L300.668 617.333" stroke="#FFF6EB" stroke-width="66.6667" stroke-linejoin="round"></path>
    <path d="M167.332 634H500.666C563.519 634 594.946 634 614.472 614.473C633.999 594.947 633.999 563.52 633.999 500.667V450.667C633.999 435.177 633.999 427.433 632.719 420.993C627.459 394.547 606.786 373.873 580.339 368.613C573.899 367.333 566.156 367.333 550.666 367.333" stroke="#FFF6EB" stroke-width="66.6667" stroke-linejoin="round"></path>
    <path d="M167.332 501V500.667" stroke="#FFF6EB" stroke-width="66.6667" stroke-linecap="round" stroke-linejoin="round"></path>
  </g>
  <defs>
    <clipPath id="clip0_1013_7">
      <rect width="674" height="668" fill="white"></rect>
    </clipPath>
  </defs>
</svg>
